<?xml version="1.0" encoding="utf-8"?>
<svg width="1230.7693px" height="800.00006px" viewBox="0 0 1230.7693 800.00006" version="1.1" xmlns:xlink="http://www.w3.org/1999/xlink" xmlns="http://www.w3.org/2000/svg">
  <g id="book">
    <g id="_2279374912">
      <path d="M55.1498 219.67C61.9492 235.102 74.7922 253.807 82.8192 270.29C88.1076 281.28 96.7956 296.128 103.217 308.753C105.389 312.962 107.656 317.287 109.828 321.263C114.36 329.446 118.61 338.682 123.048 347.333L162.428 425.545C164.599 429.988 166.961 434.196 169.039 438.522C188.02 477.218 208.7 517.434 228.249 555.663C232.876 564.665 237.22 572.263 241.847 580.797L262.434 619.026C264.229 622.417 267.911 628.145 269.045 631.419C272.066 630.718 290.293 619.377 294.542 616.806L368.202 570.745C400.97 550.169 433.739 529.242 468.491 511.823C522.602 484.817 590.974 459.214 652.356 469.969C666.615 472.425 683.803 476.985 697.307 482.946C700.423 484.35 708.166 488.674 710.528 489.025C704.389 482.011 699.102 474.412 693.246 467.281L684.747 456.058C679.742 450.095 672.47 440.158 667.749 433.611L654.999 416.777C651.317 411.632 647.257 405.086 642.912 399.591C636.302 391.408 629.03 379.366 622.231 370.949C620.72 368.961 619.681 366.974 618.359 364.869C616.943 362.649 615.526 361.362 614.11 359.375L510.609 212.071C509.759 211.136 509.287 210.434 508.532 209.265L487.756 180.74C486.055 178.518 485.017 177.232 483.412 175.246L466.225 153.5C462.731 148.239 459.615 145.785 457.348 142.745L448.377 132.106C446.771 130.235 445.826 128.832 444.222 126.846C434.873 115.271 418.063 100.19 402.954 91.0714C346.386 56.7004 288.026 64.2994 231.648 92.4742C213.14 101.71 189.153 115.037 172.249 127.43C168.661 130.118 164.789 132.34 160.917 135.146C153.362 140.64 146.562 145.785 139.291 151.279C132.02 156.891 124.56 162.151 117.666 167.996C111.811 172.907 57.2273 216.747 54.961 219.67L55.1498 219.67L55.1498 219.67Z" id="Shape" fill="#FEFEFE" fill-rule="evenodd" stroke="none" />
      <path d="M447.055 116.908C448.094 118.662 450.454 121.117 451.776 122.754C453.381 124.624 454.704 126.612 456.309 128.482L475.102 151.045C476.991 153.266 477.745 154.202 479.54 156.891L497.86 180.155C499.654 182.377 500.315 184.014 502.016 186.352C505.226 190.911 507.681 193.951 511.175 198.159L517.598 207.394C519.958 211.487 525.53 217.916 528.551 222.476C529.968 224.698 531.196 226.45 532.801 228.555L601.55 326.641C602.966 328.746 604.288 330.498 605.799 332.72C610.427 339.5 613.543 344.762 618.737 351.191C619.681 352.361 620.154 353.179 620.908 354.348L640.174 381.822C641.685 383.926 643.102 386.146 644.612 388.251L657.739 406.021C659.249 408.009 660.571 410.464 661.988 412.569C664.538 416.426 672.375 425.545 675.492 429.871L688.997 447.641C690.507 449.745 691.829 451.616 693.34 453.602L702.218 465.761C705.24 469.97 708.261 472.658 711.472 476.985C712.321 478.154 713.077 478.738 714.116 479.673C718.555 483.999 727.243 496.976 730.831 498.846C735.364 482.596 735.175 483.297 742.257 468.567C747.358 457.929 759.633 442.73 768.416 434.313C771.815 431.04 775.026 428.234 778.898 425.077C844.153 372.469 953.792 352.361 1031.89 339.033C1046.05 336.578 1154.09 319.626 1157.3 317.055C1156.07 314.599 1150.5 310.158 1148.14 308.053C1132.75 295.076 1116.5 279.06 1100.64 265.732L1081.56 248.897C1075.23 243.052 1068.62 237.908 1062.39 232.18L1004.97 182.377C991.849 171.738 979.383 160.047 966.257 149.292C959.835 144.031 953.225 138.303 946.898 132.807C940.666 127.313 934.055 122.169 927.728 116.558C921.118 110.712 914.885 105.568 908.368 99.9567C901.947 94.462 895.525 88.7335 889.009 83.4727C873.428 70.7297 856.335 55.0641 840.848 42.3212C831.121 34.3714 821.583 25.3696 811.951 17.3029C799.674 7.13193 805.246 10.2884 787.587 13.6788C754.439 19.9917 727.526 19.2903 693.906 19.4073C672.375 19.5242 650.844 19.6411 629.313 19.758C618.831 19.758 607.121 19.1734 596.828 19.9917C563.02 22.6807 523.074 33.4362 495.028 55.298C491.439 58.1037 488.417 60.6757 485.395 63.5984C476.235 72.2496 476.046 72.4834 467.83 82.3036C462.353 88.8504 448.282 110.245 446.771 116.441L447.055 116.908L447.055 116.908Z" id="Shape#1" fill="#FEFEFE" fill-rule="evenodd" stroke="none" />
      <path d="M313.334 718.399L331.938 704.954C338.266 700.394 344.404 695.952 351.014 691.509C363.857 682.741 376.512 673.622 389.826 664.971C433.644 636.796 464.241 616.571 510.892 592.255C552.35 570.626 608.821 545.258 654.716 545.492C658.778 545.492 668.976 545.258 671.904 547.246C607.594 557.767 537.807 583.019 478.879 615.871C471.607 619.962 464.431 623.586 457.442 627.794L313.334 718.282L313.334 718.399L313.334 718.399ZM269.233 747.158L269.518 740.961C272.917 739.09 277.26 735.35 280.566 732.778C284.438 729.855 287.932 727.284 291.803 724.477C313.996 708.111 337.227 690.926 359.892 675.493C429.774 627.794 531.479 561.157 611.088 543.27C621.664 540.933 632.524 539.179 643.668 538.828C652.073 538.594 660.478 539.062 668.788 541.05L674.359 542.452C676.72 543.504 675.303 542.685 675.964 543.855C674.359 545.375 675.493 543.855 675.303 545.375C658.494 539.647 627.708 545.024 610.899 549.233C530.913 569.108 432.983 633.29 360.363 682.391C338.171 697.472 314.09 714.891 292.087 731.141C284.91 736.402 276.977 743.066 269.328 747.158L269.233 747.158L269.233 747.158ZM269.611 737.804L269.801 731.258C274.334 727.05 356.396 669.765 361.024 666.491C391.621 644.98 422.69 624.638 454.798 604.414C486.055 584.773 520.241 565.6 555.654 551.103C583.796 539.647 617.037 530.294 647.728 532.281C664.255 533.333 665.387 534.97 679.458 537.893C678.798 540.347 678.23 539.53 677.476 541.399C660.571 533.333 631.108 536.256 612.598 540.23C545.927 554.844 466.791 601.958 406.825 640.772C370.373 664.386 327.5 694.549 292.276 721.087C289.254 723.308 271.406 737.221 269.516 737.687L269.611 737.804L269.611 737.804ZM269.801 728.101L269.801 718.048L292.37 702.031C370.94 646.967 473.024 574.719 558.016 544.205C588.046 533.45 619.588 525.968 651.789 528.54C659.817 529.125 667.561 530.41 675.398 532.397C676.625 532.748 677.759 532.982 678.987 533.333L681.82 534.268C682.67 534.97 681.82 533.917 682.481 535.087L681.253 535.671C680.497 535.788 680.119 535.671 679.365 535.321C670.393 532.514 661.611 530.761 652.262 529.943C586.535 524.331 512.214 566.068 456.498 600.438C440.444 610.258 424.58 620.429 408.997 630.951C401.159 636.329 393.415 641.356 385.483 646.733C349.975 670.583 316.452 695.25 281.7 719.567C278.489 721.905 273.105 726.348 269.895 727.868L269.801 728.101L269.801 728.101ZM269.989 715.126L270.084 708.111C270.839 705.54 352.619 650.126 361.024 644.864C376.7 635.044 391.904 624.522 407.865 614.935C481.146 571.095 598.906 502.821 686.164 530.528C684.464 533.217 684.369 532.282 680.119 531.113C661.327 525.852 641.402 524.332 622.231 526.32C563.681 532.516 508.532 561.509 457.537 590.385C441.01 599.738 425.617 610.026 409.47 619.729C396.91 627.211 375.001 642.058 362.346 650.71C334.489 669.649 308.896 687.887 281.7 706.943C278.772 709.046 272.822 713.84 269.989 715.126L269.989 715.126L269.989 715.126ZM270.178 704.487L270.367 697.238C282.266 688.236 302.853 673.974 315.506 665.44C330.711 655.269 346.01 644.981 361.685 634.693C436.1 586.293 539.034 527.956 625.065 520.591C636.586 519.538 648.295 519.538 659.722 520.474C665.199 520.942 670.487 521.643 675.964 522.695C678.515 523.163 680.97 523.631 683.425 524.215L688.997 525.618C691.546 526.554 690.036 525.735 690.697 526.905C687.958 527.488 691.074 529.359 684.369 527.488C677.193 525.385 668.222 523.748 660.855 523.046C593.9 515.915 517.408 549.701 459.047 582.202C425.807 600.79 393.793 619.846 362.725 640.655L316.262 671.986C312.107 674.793 272.161 703.435 269.895 704.37L270.178 704.487L270.178 704.487ZM270.462 694.549C270.178 685.898 269.706 687.885 278.206 681.924C306.158 662.283 331.183 645.33 359.985 626.625C375.567 616.455 392.094 606.635 408.431 597.166C474.535 558.82 556.032 519.889 630.636 514.862C650.278 513.575 679.553 514.978 697.307 521.643C695.796 523.863 693.908 524.682 691.546 523.98C602.21 497.559 489.927 556.013 412.02 601.14C371.884 624.405 321.078 658.191 282.171 686.132C279.81 687.885 271.972 692.912 270.65 694.549L270.462 694.549L270.462 694.549ZM270.839 684.378L270.745 676.662L316.828 644.863C364.896 613.649 411.83 583.37 463.202 559.521C498.427 543.153 534.313 528.073 573.786 518.72C606.177 511.121 639.702 507.029 673.038 511.355C678.137 512.057 701.084 515.68 703.54 518.369C700.329 518.837 702.406 520.825 696.74 519.071C622.798 496.507 529.968 532.164 463.863 564.781C419.762 586.644 360.363 622.417 317.206 652.229C309.369 657.606 301.53 662.985 293.881 668.245C286.043 673.622 278.489 679.234 270.933 684.495L270.839 684.378L270.839 684.378ZM270.933 673.856L270.839 667.543C273.388 664.971 313.807 637.498 317.489 634.926C408.619 573.199 541.017 497.092 647.067 501.65C670.771 502.703 688.713 507.029 709.583 514.862L708.451 515.68C705.9 516.966 699.763 514.277 695.418 513.225C690.129 511.822 685.03 510.886 679.648 509.952C646.596 504.457 611.276 507.73 579.169 515.095C505.51 531.813 430.811 570.51 365.369 610.843C338.171 627.561 308.896 646.85 282.549 665.673C278.772 668.362 274.71 671.517 270.933 673.856L270.933 673.856L270.933 673.856ZM271.122 664.271L271.122 655.97C273.295 653.398 315.13 624.989 318.529 622.768C419.008 556.13 576.053 463.306 689.375 499.547C696.268 501.769 712.133 507.964 716.761 511.94L716.288 512.174C712.983 513.81 712.983 513.81 710.245 512.641C672.47 496.158 625.253 496.742 586.724 504.224C545.078 512.29 507.02 526.903 470.38 543.739C405.881 573.433 342.609 614.117 283.022 655.853C279.622 658.308 274.428 662.517 271.028 664.154L271.122 664.271L271.122 664.271ZM271.406 652.463L271.406 640.772C274.994 637.967 280.094 635.628 284.249 633.056C288.687 630.367 292.748 627.796 297.186 625.34C305.969 620.313 313.996 614.935 322.684 609.558L360.646 585.358C378.117 574.134 407.675 555.312 424.578 546.076L450.927 531.229C478.218 516.265 505.51 502.938 534.879 493.001C598.623 471.255 652.073 468.45 712.983 500.482C715.439 501.769 721.765 505.276 724.127 507.38L725.449 508.783C720.16 512.641 717.516 509.134 711.85 506.329C638.757 469.268 544.606 498.495 475.668 530.294C422.69 554.727 369.241 585.825 320.322 618.794L271.595 652.346L271.406 652.463L271.406 652.463ZM790.137 508.081C791.553 504.924 804.774 495.104 807.04 493.585C851.047 462.02 910.825 446.238 961.253 438.053C995.627 432.559 1029.91 428.583 1065.22 426.012C1102.24 423.323 1138.79 422.855 1176.09 421.452C1176.66 423.323 1178.55 429.987 1178.36 432.442C1141.25 433.377 1103.28 432.325 1066.17 432.091C1032.93 431.857 992.416 434.547 959.647 440.158C915.924 447.522 886.083 456.641 847.458 475.463C840.565 478.854 834.426 482.479 827.815 486.219C821.489 489.844 815.35 493.701 809.023 498.027L795.708 507.614C793.631 509.017 792.214 507.964 790.137 507.964L790.137 508.081L790.137 508.081ZM785.792 506.444C788.531 499.781 812.895 481.777 820.071 477.101C832.443 469.151 846.798 462.02 861.151 456.409C890.992 444.601 923.29 436.651 956.153 430.922C1010.08 421.569 1062.96 417.946 1117.54 415.841C1126.8 415.49 1136.15 415.257 1145.49 415.023C1154.47 414.789 1165.8 415.373 1174.39 414.321L1175.15 419.115C1102.9 420.05 1028.68 424.025 958.703 436.066C905.63 445.185 839.526 462.253 794.858 500.249C790.23 504.224 788.625 507.146 785.697 506.444L785.792 506.444L785.792 506.444ZM780.881 505.158L788.72 496.156C810.156 474.997 827.344 462.487 854.352 449.627C923.761 416.543 1037.46 410.346 1114.71 406.606C1127.74 406.021 1160.98 403.682 1171.75 404.033C1171.84 404.15 1171.84 404.15 1171.94 404.384C1171.94 404.384 1173.26 409.294 1173.45 412.1C1078.82 412.801 947.182 418.997 857.468 455.356C834.143 464.826 808.362 479.322 789.852 498.495C785.226 503.289 784.187 506.094 780.881 505.158L780.881 505.158L780.881 505.158ZM776.821 504.34C785.036 494.052 800.619 480.139 810.912 472.306C823.282 462.837 836.693 454.303 851.141 447.055C880.982 432.09 912.146 422.971 946.426 415.489C996.288 404.5 1059.84 399.122 1111.97 395.965C1122.26 395.381 1162.87 392.576 1170.05 393.161C1170.61 395.732 1171.46 398.655 1171.28 401.695C1096.48 405.084 1019.99 407.657 947.276 419.932C892.032 429.285 836.881 446.938 793.536 488.439C790.703 491.129 788.247 493.584 785.414 496.624L779.465 503.17C778.615 504.34 778.521 504.924 776.726 504.457L776.821 504.34L776.821 504.34ZM772.193 503.872C776.348 497.092 801.374 475.697 807.228 471.255C819.505 461.669 833.577 452.667 848.025 445.185C877.583 429.869 909.407 418.763 943.593 410.58C1011.4 394.213 1084.58 388.485 1154.18 384.86C1157.58 384.626 1165.8 383.808 1168.72 384.393C1169.29 387.082 1169.29 388.134 1169.67 390.705C1104.23 392.225 1007.34 400.175 943.687 413.737C889.199 425.311 832.538 445.887 789.759 487.622L777.294 500.365C775.593 502.353 775.026 504.34 772.193 503.989L772.193 503.872L772.193 503.872ZM766.905 503.521C768.133 500.716 782.109 487.622 783.997 485.868C828.193 444.25 884.759 420.868 939.721 405.67C999.215 389.186 1074.39 380.651 1137.09 377.028C1146.25 376.443 1158.53 374.923 1167.4 375.508C1168.16 377.378 1168.25 379.249 1168.25 381.469C1166.46 382.054 1142.47 382.873 1138.41 383.106C1071.74 387.199 1006.11 392.693 940.665 408.709C891.653 420.634 844.342 439.105 803.734 471.138C790.325 481.66 783.809 488.324 772.571 500.132C770.966 501.769 770.116 503.638 766.999 503.404L766.905 503.521L766.905 503.521ZM760.295 503.405C761.995 500.716 766.338 496.625 768.7 494.17C771.722 491.13 774.46 488.325 777.86 485.285C825.266 442.028 876.544 418.18 935.66 400.761C997.893 382.523 1070.7 372.936 1135.86 368.844L1164.57 367.207C1165.04 367.207 1165.23 367.207 1165.7 367.324C1166.93 367.558 1167.12 367.909 1167.12 372.703C1165.42 373.638 1113.39 376.326 1106.3 376.794C1086.66 378.314 1066.64 380.301 1047.19 382.874C1009.51 387.783 972.207 394.214 936.416 404.151C878.999 420.167 814.784 447.991 770.588 496.04C769.266 497.561 767.661 499.079 766.245 500.599C763.695 503.172 764.828 503.873 760.201 503.522L760.295 503.405L760.295 503.405ZM754.251 504.106C756.423 498.729 784.943 473.243 791.27 468.215C865.59 409.293 954.642 383.808 1042.84 369.896C1075.71 364.752 1133.41 358.439 1165.89 358.089C1165.99 360.66 1166.27 361.946 1166.27 364.635C1093.65 366.74 1001.95 378.314 932.071 399.122C873.522 416.543 819.789 442.145 773.327 486.336C770.305 489.259 767.094 492.416 764.356 495.455C758.879 501.418 759.445 502.235 754.346 503.989L754.251 504.106L754.251 504.106ZM748.49 504.34C757.179 492.416 773.705 475.463 784.658 465.994C828.005 428.466 871.916 407.19 925.461 389.069C992.321 366.506 1076.84 354.932 1148.23 350.958C1153.43 350.724 1159.94 349.905 1164.95 350.256C1165.04 350.373 1165.04 350.49 1165.04 350.724C1165.14 351.659 1165.52 352.125 1165.42 355.399C1163.34 356.452 1138.13 357.27 1133.41 357.621C1123.02 358.322 1112.63 359.141 1102.15 360.193C988.354 371.415 846.137 401.227 758.406 495.922L751.701 503.404C750.569 504.69 750.474 504.573 748.396 504.573L748.49 504.34L748.49 504.34ZM741.596 505.275C742.635 503.172 744.146 501.301 745.375 499.664C767.945 468.449 787.681 450.679 819.034 428.934C848.78 408.359 885.798 392.459 919.228 380.769C993.548 354.815 1082.41 343.474 1164.48 340.085C1164.95 342.774 1165.04 344.527 1164.85 347.333C1163.06 348.151 1136.71 349.087 1132.27 349.437C1014.99 357.972 861.906 383.691 770.116 476.516C766.716 479.906 764.073 482.946 760.862 486.219C759.257 487.856 757.934 489.493 756.423 491.13C754.629 493 753.685 494.402 751.984 496.507C746.129 503.638 746.319 505.275 741.596 505.275L741.596 505.275L741.596 505.275ZM737.442 505.86C737.348 502.47 740.559 492.533 741.691 489.259C745.28 478.971 750.286 470.554 755.762 462.253L774.366 440.859C783.809 431.623 796.369 422.505 807.607 415.841C872.767 377.378 965.313 359.609 1038.5 347.333C1069.38 342.189 1102.72 337.162 1133.41 331.434C1138.32 330.498 1161.27 325.472 1164.19 325.823L1164.29 337.629C1141.81 339.033 1119.81 340.202 1097.52 342.306C1002.52 351.074 898.359 373.52 815.445 428.468C786.265 447.757 762.751 470.905 741.786 500.716C740.464 502.587 739.52 505.626 737.253 505.626L737.442 505.86L737.442 505.86ZM262.434 730.439C262.434 733.947 262.057 737.921 261.868 741.429C260.452 740.143 255.636 730.206 254.219 727.75C251.574 723.191 249.308 718.631 246.758 713.839C221.922 667.66 196.047 621.248 172.533 574.134C162.994 554.961 152.985 537.074 143.446 517.785C140.992 512.874 138.63 508.081 136.175 503.638L121.632 475.23C110.3 452.082 96.9849 427.765 85.3694 404.618L41.2683 320.561C38.7185 315.767 36.4521 311.092 33.9024 306.532C32.5803 304.31 26.8197 295.074 27.5753 292.737C28.9918 294.256 86.5025 401.812 87.4469 403.566C97.5514 422.388 107.278 440.508 117.383 459.214L251.858 708.928C253.558 712.085 262.434 727.049 262.529 730.323L262.434 730.439L262.434 730.439ZM263.001 760.719C266.778 759.783 283.776 748.444 288.215 745.521L312.863 729.622C316.828 727.167 320.795 724.244 324.855 721.788C328.917 719.217 333.166 716.411 337.038 713.722C344.97 708.111 353.564 703.434 361.591 697.706C377.268 686.365 394.454 676.662 410.697 666.14C427.317 655.385 443.844 645.682 461.125 635.862C477.274 626.626 496.727 616.455 513.348 608.271C531.385 599.269 549.516 592.138 568.782 584.539C595.6 573.9 638.474 561.741 667.937 557.3C684.275 554.844 674.454 557.767 685.503 543.972C704.767 519.889 742.542 511.238 771.91 512.992C777.577 513.343 783.054 514.277 787.87 516.381C796.086 520.006 791.931 521.292 800.052 515.095C829.61 492.416 871.823 471.723 906.385 461.552C926.784 455.473 947.843 450.913 969.562 447.641C980.99 445.887 992.038 444.834 1003.65 443.782C1009.6 443.197 1015.65 443.314 1021.6 442.847C1027.64 442.379 1033.31 441.677 1039.54 441.677C1089.31 441.677 1138.98 442.847 1188.65 441.327C1188.18 437.236 1183.08 419.232 1181.76 413.386C1179.68 404.618 1176.94 392.108 1176.19 382.873C1177.7 384.159 1180.91 390.589 1181.95 392.576C1187.42 402.981 1192.15 410.813 1197.91 422.154C1199.98 426.363 1216.51 459.213 1217.74 463.54C1210.84 464.124 1187.8 464.007 1179.59 464.007C1142.09 464.124 1104.51 464.826 1067.11 467.163C1055.31 467.865 1043.6 469.501 1031.89 470.788C1020.18 472.074 1008.56 473.36 997.137 475.114C946.898 482.829 889.009 495.922 843.492 522.461C838.959 525.033 834.898 527.722 831.404 531.113C827.722 534.736 824.416 538.361 820.449 541.751C788.908 568.523 747.546 581.382 701.557 584.89C689.563 585.825 676.247 585.474 664.065 585.591C650.373 585.708 644.234 587.696 630.825 591.67C610.144 597.984 590.596 604.998 570.859 612.831C531.951 628.262 495.028 645.332 459.237 664.621C450.265 669.414 441.861 674.557 432.89 679.351C424.107 684.027 414.947 688.938 406.542 694.081C397.948 699.343 389.072 703.785 380.478 709.163C371.979 714.54 362.913 719.451 354.508 724.945C350.164 727.751 346.103 730.09 341.76 732.895C329.388 740.961 315.412 748.678 303.231 756.745C294.826 762.239 286.421 767.033 277.733 772.527C273.388 775.216 269.423 777.671 264.985 780.476L251.764 788.543L235.52 757.914C224.377 737.805 213.801 716.294 203.035 696.42L159.122 611.077C136.364 567.237 114.644 521.292 92.2628 477.217C87.0688 466.929 81.5916 456.292 76.681 445.653C67.332 425.428 55.5276 403.449 45.6119 382.405C43.0623 376.911 40.5125 372.351 37.9627 366.74C30.6912 350.724 22.0032 335.291 14.6373 319.158C11.521 312.495 6.70482 306.882 8.78239 302.207C10.1045 299.284 16.9038 292.036 20.1146 290.633C20.4923 297.413 17.2815 293.789 25.1196 307.116C27.8582 311.676 30.408 316.586 33.0522 321.497C38.246 331.434 43.0623 341.722 48.4451 350.841C53.3556 359.258 58.644 370.715 63.7435 380.185C71.3926 394.213 78.9475 409.879 86.5023 424.025C98.8732 447.29 112.189 474.061 124.465 497.91C129.564 507.847 134.57 517.317 139.574 527.488C149.49 547.596 159.973 565.951 169.793 586.293C172.343 591.67 174.894 595.762 177.442 601.023C179.898 606.167 182.731 610.492 185.186 615.637C194.63 634.927 205.868 655.269 215.973 674.207C221.167 683.91 226.266 693.847 231.554 703.317L263.095 760.953L263.001 760.719L263.001 760.719ZM28.6135 284.788L88.3908 392.576C93.3958 401.461 98.4009 410.346 103.312 419.582C112.661 437.002 123.804 456.174 133.342 473.711L178.388 555.195C188.586 573.433 198.124 591.319 208.417 609.323C218.522 627.21 228.343 645.564 238.448 663.451C243.547 672.454 248.27 681.456 253.369 690.341C255.919 694.783 258.185 699.226 260.828 703.785C263.662 708.812 263.284 709.046 263.001 718.516C263.001 720.034 263.001 722.607 262.529 723.776C261.206 722.256 234.859 672.804 233.065 669.414L30.4078 292.971C28.7079 289.814 27.5748 289.346 28.7079 284.554L28.6135 284.788L28.6135 284.788ZM29.8415 276.02L59.4939 328.629C69.3152 346.282 79.2309 364.052 89.241 381.705C109.167 417.01 128.62 452.199 148.546 487.506C173.194 531.229 198.313 575.537 222.583 619.495C227.494 628.38 232.404 637.265 237.504 646.033L259.696 685.665C260.64 687.418 263.001 690.809 263.285 692.679C263.851 696.303 262.812 700.395 263.473 703.669C261.868 702.266 250.63 681.222 248.458 677.365C243.454 668.362 238.543 659.711 233.727 650.709C225.039 634.225 213.423 614.117 204.262 597.399C194.913 580.331 183.676 561.041 174.704 544.09C165.072 525.969 154.779 508.9 145.241 490.779C135.986 473.36 125.314 455.005 115.777 437.469L34.6576 291.102C29.2748 281.398 28.7082 282.683 30.0303 276.137L29.8415 276.02L29.8415 276.02ZM31.919 264.795L32.9578 266.081C33.4299 266.783 33.5244 267.134 33.9022 267.835C34.4687 268.887 35.1297 270.057 35.6964 271.109C36.9241 273.447 38.0572 275.2 39.2849 277.538L90.4686 369.662C110.205 404.501 129.093 439.807 148.735 474.645C168.471 509.718 187.264 544.673 207.095 579.628C216.917 596.93 226.266 614.583 236.181 632.004C244.492 646.734 253.463 663.802 261.679 677.948C264.229 682.273 262.623 682.156 263.285 687.418C261.962 686.366 206.34 586.526 204.074 582.434C194.442 564.898 184.715 547.596 174.704 529.942C154.967 495.221 135.419 459.564 115.777 424.726C105.767 407.072 95.9458 389.536 86.219 372C69.2208 341.37 51.5615 310.858 34.752 280.228C33.6188 278.123 32.0134 275.785 30.9746 273.564C30.1247 271.81 31.069 267.134 31.919 264.795L31.919 264.795L31.919 264.795ZM34.2798 253.573C36.4518 256.028 116.06 401.227 121.065 410.229L178.859 514.862C198.407 549.466 217.388 585.124 236.843 619.845L262.151 665.556C264.039 668.946 262.907 671.401 263.378 675.961C261.396 673.856 205.679 572.614 204.64 570.86C194.818 553.441 185.376 536.022 175.554 518.486C156.101 483.53 136.836 448.107 117.194 413.503C92.7349 370.363 68.5596 325.12 44.1011 281.865C41.6457 277.538 39.2848 273.214 36.8295 268.654C31.8245 259.769 32.0133 262.575 34.2798 253.573L34.2798 253.573L34.2798 253.573ZM37.8682 242.35C39.2847 243.519 113.322 381.353 122.954 399.007C132.492 416.543 141.746 433.728 151.285 451.264C170.171 486.219 188.869 520.825 207.946 555.897L261.113 653.982C262.812 657.138 263.568 657.723 263.19 662.75C261.679 660.997 250.63 640.421 248.646 636.796C234.764 610.843 219.466 584.422 205.206 558.235C200.39 549.467 195.574 541.049 190.758 532.164C186.13 523.513 181.22 514.628 176.31 506.094C166.489 488.558 157.045 471.255 147.318 453.602C128.053 418.646 108.694 384.042 89.5241 348.97C79.8917 331.434 70.2593 313.898 60.5326 296.478C59.3993 294.491 35.6017 251.819 35.4129 250.533C35.224 248.896 37.0182 243.87 37.8682 242.35L37.8682 242.35L37.8682 242.35ZM43.062 230.775C45.0452 233.348 237.409 593.073 260.45 636.446C261.396 638.199 263.567 641.473 263.756 643.11C264.229 646.617 263.095 650.358 263.662 653.748C261.679 651.995 183.109 505.743 177.632 495.572C168.094 478.036 158.462 460.5 149.018 442.73C139.574 425.077 130.13 407.658 120.593 390.121L41.8344 244.688C40.6068 242.35 38.6236 240.245 39.4735 237.791C40.1345 235.92 42.0233 232.062 43.062 230.775L43.062 230.775L43.062 230.775ZM44.479 228.321C45.5178 226.45 46.5565 225.281 48.2564 224.697C51.3727 228.438 105.389 330.382 109.545 338.097L129.376 376.677C132.681 383.106 135.609 389.536 138.913 395.967C142.219 402.396 145.43 409.06 148.735 415.374C165.072 446.821 181.031 481.076 197.558 512.874C199.163 516.031 200.863 519.422 202.469 522.577C203.601 524.799 206.718 530.41 207.285 532.515C204.074 525.383 191.797 503.872 186.886 494.403C183.582 487.973 180.182 481.894 176.688 475.463L64.7824 266.549C60.6273 258.716 47.312 234.634 44.479 228.321L44.479 228.321L44.479 228.321ZM54.961 219.435C57.2273 216.513 111.811 172.672 117.666 167.762C124.56 161.918 131.925 156.656 139.291 151.045C146.562 145.433 153.362 140.406 160.917 134.911C164.789 132.106 168.566 129.884 172.249 127.195C189.153 114.803 213.14 101.476 231.648 92.2399C288.026 64.0651 346.386 56.4661 402.954 90.8371C417.968 99.9558 434.873 115.037 444.222 126.61C445.826 128.598 446.771 130.001 448.377 131.872L457.348 142.511C459.615 145.55 462.731 147.888 466.225 153.265L483.412 175.01C484.923 176.998 485.962 178.284 487.756 180.506L508.532 209.031C509.287 210.199 509.759 210.901 510.609 211.836L614.11 359.141C615.621 361.244 616.943 362.414 618.359 364.635C619.681 366.74 620.72 368.727 622.231 370.714C629.03 379.131 636.396 391.173 642.912 399.356C647.257 404.852 651.222 411.398 654.999 416.542L667.749 433.377C672.47 439.807 679.742 449.861 684.747 455.823L693.246 467.046C699.007 474.294 704.389 481.777 710.528 488.791C708.166 488.324 700.517 484.114 697.307 482.711C683.897 476.75 666.615 472.308 652.356 469.735C590.974 458.98 522.602 484.465 468.491 511.588C433.739 529.008 400.876 549.934 368.202 570.51L294.542 616.571C290.293 619.143 272.066 630.484 269.045 631.185C267.911 627.911 264.229 622.183 262.434 618.793L241.847 580.564C237.314 572.03 232.876 564.431 228.249 555.429C208.607 517.2 188.02 476.866 169.039 438.287C166.961 433.962 164.599 429.753 162.428 425.311L123.048 347.099C118.516 338.565 114.36 329.329 109.828 321.029C107.656 317.054 105.389 312.729 103.217 308.519C96.7956 296.01 88.1076 281.046 82.8192 270.057C74.7922 253.573 61.9492 234.868 55.1498 219.435L54.961 219.435L54.961 219.435ZM446.96 116.791C448.471 110.712 462.542 89.2007 468.02 82.6539C476.235 72.8336 476.425 72.5999 485.584 63.9487C488.606 61.026 491.722 58.454 495.216 55.6483C523.264 33.6695 563.21 23.0309 597.018 20.342C607.311 19.5237 619.115 20.1082 629.503 20.1082C651.034 19.9914 672.565 19.8745 694.096 19.7575C727.716 19.5237 754.629 20.342 787.776 14.0291C805.435 10.6387 799.863 7.3653 812.14 17.6532C821.772 25.7199 831.31 34.6048 841.038 42.6714C856.524 55.4144 873.522 71.08 889.199 83.823C895.714 89.0838 902.137 94.8123 908.558 100.307C915.073 105.802 921.307 111.063 927.916 116.908C934.244 122.403 940.854 127.664 947.087 133.158C953.414 138.652 959.93 144.498 966.447 149.642C979.573 160.398 992.038 172.089 1005.16 182.727L1062.58 232.529C1068.81 238.258 1075.42 243.402 1081.75 249.248L1100.83 266.082C1116.69 279.526 1132.94 295.426 1148.33 308.402C1150.78 310.39 1156.26 314.95 1157.49 317.404C1154.28 319.977 1046.24 336.928 1032.08 339.383C953.887 352.711 844.247 372.935 779.088 425.428C775.216 428.585 772.005 431.39 768.606 434.663C759.823 443.081 747.546 458.278 742.447 468.917C735.458 483.648 735.553 482.946 731.02 499.196C727.431 497.326 718.743 484.35 714.305 480.023C713.266 479.088 712.606 478.503 711.661 477.334C708.451 472.892 705.429 470.203 702.406 466.112L693.53 453.953C691.924 451.849 690.697 450.095 689.185 447.991L675.681 430.22C672.47 425.895 664.727 416.777 662.177 412.918C660.761 410.814 659.344 408.359 657.927 406.372L644.801 388.602C643.385 386.497 641.873 384.276 640.363 382.171L621.098 354.698C620.249 353.53 619.776 352.594 618.927 351.542C613.732 344.994 610.522 339.851 605.989 333.071C604.478 330.849 603.25 329.095 601.739 326.991L532.991 228.906C531.385 226.801 530.158 224.93 528.741 222.826C525.719 218.267 520.148 211.838 517.787 207.745L511.365 198.51C507.776 194.3 505.415 191.378 502.204 186.702C500.505 184.247 499.844 182.727 498.049 180.506L479.729 157.241C477.935 154.553 477.179 153.5 475.291 151.396L456.498 128.832C454.892 126.962 453.57 124.975 451.966 123.104C450.549 121.467 448.188 119.012 447.243 117.259L446.96 116.791L446.96 116.791ZM0 302.674L0 306.766C2.54974 310.975 5.00505 317.054 7.55478 322.198L26.3473 361.129C27.6694 363.934 28.8026 366.506 30.2192 369.195C37.6795 383.106 45.2343 401.227 53.0724 415.841C57.0387 423.206 64.2156 438.754 68.1819 446.939C70.6373 451.966 73.2815 457.694 75.8311 462.604L81.6862 474.062C82.3472 475.348 83.0083 476.75 83.6693 478.036C84.9914 480.725 86.219 483.414 87.4467 485.751C92.6406 495.455 97.5511 506.444 102.84 516.499C108.978 527.956 116.155 543.621 122.293 555.546C129.942 570.276 137.781 586.995 145.43 601.958C148.169 607.22 150.812 612.714 153.173 617.507L180.56 671.051C181.221 672.454 181.882 673.622 182.638 674.908L196.33 701.446C197.652 704.019 199.068 706.825 200.39 709.28C207.19 721.788 215.217 738.741 222.206 750.898L240.526 785.036C241.281 786.321 241.753 787.374 242.415 788.543L248.836 800L249.969 800L366.879 727.635C378.967 720.619 395.115 710.332 406.448 704.135L446.677 681.339C449.132 680.053 451.02 679.001 453.287 677.715C455.838 676.311 457.82 675.376 460.276 673.973C469.53 668.947 478.313 664.737 487.567 659.828C500.41 653.164 516.369 645.798 529.78 639.486C551.121 629.315 581.247 617.273 603.439 609.791C613.638 606.401 623.931 603.01 634.507 599.854C668.693 589.683 657.644 596.464 687.203 594.476C721.199 592.138 754.724 588.515 786.737 573.082C799.013 567.237 814.972 557.767 825.266 548.181L836.22 537.542C838.298 535.905 840.375 534.502 842.358 533.216C872.484 514.043 906.007 504.106 939.155 495.572C974.19 486.687 1007.05 482.479 1042.56 478.386C1054.55 476.983 1067.4 476.633 1079.01 475.231C1095.35 473.243 1138.88 472.425 1155.03 472.425C1167.12 472.425 1181.29 471.372 1193 471.957L1230.77 472.425L1230.77 471.022C1229.16 468.683 1206.12 420.283 1202.34 412.918C1200.74 409.878 1198.95 406.606 1197.43 403.682C1193.47 395.967 1181.47 373.988 1176.85 366.974C1173.64 362.064 1173.92 362.998 1173.35 355.516C1172.69 345.813 1172.5 336.11 1171.75 326.406C1171.28 320.444 1172.22 317.755 1168.72 314.95L1059.09 217.215C1056.44 214.642 1054.46 213.239 1051.44 210.785C1048.6 208.447 1046.62 206.459 1043.98 204.238L999.498 166.009C993.926 161.216 990.527 158.644 984.672 153.266C982.311 151.045 979.667 149.291 977.306 147.07L969.846 140.523C964.841 136.665 959.836 131.755 954.926 127.897L917.718 95.9813C910.918 89.902 902.986 83.9398 895.242 76.9253C884.383 67.1051 868.8 55.2974 858.129 45.4772C850.953 38.8134 842.736 32.5003 835.843 26.0704C831.971 22.4463 807.606 2.57198 806.284 0L804.207 0C799.486 3.27342 763.034 7.94974 754.346 8.53427C750.001 8.76809 744.997 8.76809 740.747 9.23572C736.403 9.70335 731.398 9.11881 727.148 9.58644C719.972 10.4048 706.467 9.93717 699.385 9.35263C690.697 8.65118 680.026 9.35263 671.054 9.35263C643.102 9.35263 615.526 8.885 588.14 11.6908C552.916 15.198 511.931 28.0578 485.679 51.9071L466.225 71.3137C463.77 74.3534 461.503 77.1591 459.047 80.1988C457.631 81.9524 457.159 83.2384 455.838 85.1089L449.604 94.6953C445.543 101.008 443.183 106.269 441.011 109.776L428.357 98.7871C426.185 97.0335 424.107 95.163 421.935 93.4094C419.763 91.6558 417.968 90.1359 415.607 88.3823C381.423 63.7147 341.854 54.479 302.569 59.7399C276.222 63.2471 251.196 72.7167 226.738 84.4074C221.545 86.8625 216.822 89.6683 211.818 92.2402L183.109 108.958C166.583 120.064 148.357 132.69 132.492 144.966L103.406 168.23C98.9678 171.738 94.8126 174.777 90.6575 178.518C88.6743 180.389 86.1246 182.143 84.1414 183.662C81.9695 185.298 79.8918 187.052 77.9088 188.806C75.7367 190.794 73.9425 191.963 71.3927 194.066C69.2207 195.937 67.2377 197.457 64.9712 199.445C63.9324 200.38 62.6103 201.316 61.5716 202.134C60.4383 203.068 59.6828 203.887 58.5497 204.822L45.7065 215.11C41.4569 218.033 37.6795 222.943 35.1297 228.087C29.2748 239.778 25.8752 252.754 23.6087 266.55C23.231 268.887 22.57 275.552 21.8144 277.189C20.9646 279.175 13.5041 282.098 8.97131 287.476C-0.944348 299.167 3.39966 296.128 0.0944348 302.324L0 302.674L0 302.674Z" id="Shape#2" fill="#302F2F" fill-rule="evenodd" stroke="none" />
      <path d="M231.554 703.2C226.361 693.73 221.26 683.793 215.973 674.09C205.774 655.034 194.63 634.692 185.186 615.519C182.636 610.375 179.898 606.049 177.442 600.906C174.894 595.646 172.343 591.553 169.793 586.176C159.973 565.834 149.49 547.479 139.574 527.371C134.475 517.2 129.564 507.73 124.465 497.793C112.189 473.943 98.8732 447.055 86.5023 423.908C78.9475 409.644 71.3926 394.096 63.7435 380.066C58.644 370.597 53.3556 359.141 48.4451 350.724C43.1567 341.605 38.246 331.317 33.0522 321.38C30.5024 316.469 27.8582 311.559 25.1196 306.999C17.2815 293.673 20.4923 297.296 20.1146 290.516C16.9038 291.919 10.1045 299.167 8.78239 302.09C6.70482 306.766 11.521 312.378 14.6373 319.041C22.0032 335.174 30.6912 350.607 37.9627 366.623C40.5125 372.234 42.9678 376.911 45.6119 382.288C55.5276 403.332 67.2375 425.311 76.681 445.535C81.5916 456.173 86.9744 466.812 92.2628 477.1C114.644 521.174 136.364 567.12 159.122 610.96L203.035 696.303C213.801 716.177 224.377 737.57 235.52 757.796L251.764 788.426L264.985 780.359C269.423 777.67 273.388 775.216 277.733 772.41C286.421 766.914 294.826 762.122 303.231 756.628C315.412 748.677 329.388 740.844 341.76 732.778C346.103 729.972 350.164 727.634 354.508 724.828C362.913 719.333 371.979 714.423 380.478 709.046C389.072 703.668 397.948 699.226 406.542 693.964C414.947 688.704 424.107 683.91 432.89 679.234C441.861 674.441 450.359 669.297 459.237 664.503C495.028 645.214 531.951 628.145 570.859 612.714C590.596 604.881 610.049 597.866 630.825 591.553C644.234 587.461 650.468 585.474 664.065 585.474C676.247 585.357 689.658 585.708 701.557 584.773C747.546 581.265 788.814 568.405 820.449 541.633C824.416 538.244 827.722 534.619 831.404 530.994C834.993 527.488 839.054 524.916 843.492 522.343C889.104 495.806 946.898 482.713 997.137 474.996C1008.56 473.243 1020.18 471.957 1031.89 470.671C1043.6 469.385 1055.31 467.748 1067.11 467.046C1104.51 464.591 1142.09 464.007 1179.59 463.89C1187.8 463.89 1210.84 464.007 1217.74 463.423C1216.51 459.214 1200.08 426.246 1197.91 422.037C1192.15 410.58 1187.42 402.864 1181.95 392.459C1180.91 390.471 1177.7 384.042 1176.19 382.756C1176.94 391.991 1179.68 404.501 1181.76 413.269C1183.17 419.114 1188.27 437.001 1188.65 441.21C1138.98 442.847 1089.21 441.561 1039.54 441.561C1033.21 441.561 1027.64 442.262 1021.6 442.73C1015.65 443.198 1009.6 443.198 1003.65 443.665C992.038 444.718 980.99 445.769 969.562 447.522C947.843 450.913 926.784 455.355 906.385 461.435C871.916 471.606 829.61 492.299 800.052 514.978C791.931 521.174 796.086 520.006 787.87 516.265C783.054 514.16 777.577 513.225 771.91 512.874C742.447 511.121 704.767 519.772 685.503 543.855C674.454 557.65 684.18 554.727 667.937 557.183C638.474 561.625 595.695 573.783 568.782 584.422C549.516 592.021 531.385 599.269 513.348 608.154C496.633 616.454 477.274 626.508 461.125 635.744C443.844 645.681 427.223 655.385 410.697 666.023C394.549 676.428 377.268 686.249 361.591 697.589C353.658 703.317 344.97 708.111 337.038 713.605C333.166 716.294 328.917 719.099 324.855 721.671C320.795 724.244 316.828 727.05 312.863 729.504L288.215 745.404C283.776 748.326 266.778 759.666 263.001 760.602L231.46 702.966L231.554 703.2L231.554 703.2Z" id="Shape#3" fill="#FEFEFE" fill-rule="evenodd" stroke="none" />
      <path d="M320.229 618.91C369.146 585.942 422.596 554.844 475.574 530.411C544.606 498.612 638.663 469.385 711.755 506.444C717.516 509.367 720.065 512.758 725.354 508.9L724.032 507.497C721.577 505.393 715.344 501.886 712.889 500.599C651.978 468.683 598.433 471.372 534.784 493.117C505.51 503.172 478.123 516.382 450.832 531.346L424.485 546.193C407.58 555.429 378.022 574.251 360.553 585.474L322.59 609.674C313.807 615.052 305.874 620.43 297.092 625.457C292.748 627.911 288.593 630.484 284.154 633.173C280.094 635.745 274.9 638.082 271.311 640.889L271.311 652.58L320.039 619.026L320.229 618.91L320.229 618.91Z" id="Shape#4" fill="#FEFEFE" fill-rule="evenodd" stroke="none" />
      <path d="M737.536 505.86C739.803 505.743 740.747 502.703 742.069 500.949C762.939 471.138 786.453 447.99 815.728 428.7C898.642 373.754 1002.8 351.307 1097.81 342.539C1120.09 340.434 1142.09 339.383 1164.57 337.863L1164.48 326.055C1161.55 325.704 1138.6 330.732 1133.69 331.666C1103.09 337.279 1069.66 342.305 1038.78 347.567C965.596 359.841 872.955 377.612 807.891 416.074C796.652 422.738 784.092 431.74 774.649 441.093L756.046 462.487C750.569 470.671 745.468 479.088 741.974 489.493C740.842 492.765 737.631 502.703 737.724 506.093L737.536 505.86L737.536 505.86Z" id="Shape#5" fill="#FEFEFE" fill-rule="evenodd" stroke="none" />
      <path d="M271.217 664.269C274.617 662.517 279.716 658.308 283.21 655.969C342.704 614.234 405.975 573.549 470.569 543.855C507.115 527.02 545.173 512.407 586.912 504.34C625.536 496.858 672.754 496.273 710.433 512.757C713.172 513.926 713.172 513.926 716.478 512.29L716.949 512.057C712.228 508.081 696.457 501.885 689.563 499.664C576.336 463.54 419.196 556.364 318.718 622.885C315.318 625.105 273.483 653.514 271.311 656.086L271.311 664.386L271.217 664.269L271.217 664.269Z" id="Shape#6" fill="#FEFEFE" fill-rule="evenodd" stroke="none" />
      <path d="M43.1567 230.894C42.1178 232.178 40.1346 236.037 39.5681 237.908C38.7181 240.48 40.6069 242.466 41.929 244.805L120.688 390.239C130.225 407.775 139.669 425.194 149.113 442.847C158.65 460.617 168.283 478.27 177.727 495.689C183.204 505.743 261.774 652.112 263.756 653.866C263.19 650.475 264.322 646.734 263.851 643.227C263.662 641.59 261.396 638.199 260.545 636.562C237.504 593.19 45.1397 233.348 43.1567 230.894L43.1567 230.894L43.1567 230.894Z" id="Shape#7" fill="#FEFEFE" fill-rule="evenodd" stroke="none" />
      <path d="M741.786 505.393C746.507 505.51 746.319 503.756 752.174 496.624C753.968 494.521 754.817 493.234 756.612 491.247C758.123 489.61 759.445 487.973 761.05 486.337C764.261 483.063 766.905 480.023 770.305 476.634C862.19 383.925 1015.17 358.206 1132.46 349.554C1136.9 349.204 1163.34 348.268 1165.04 347.45C1165.23 344.645 1165.14 342.891 1164.66 340.202C1082.6 343.593 993.833 354.933 919.418 380.886C885.893 392.577 848.969 408.359 819.222 429.052C787.87 450.796 768.133 468.449 745.563 499.781C744.335 501.418 742.918 503.289 741.786 505.393L741.786 505.393L741.786 505.393Z" id="Shape#8" fill="#FEFEFE" fill-rule="evenodd" stroke="none" />
      <path d="M271.028 673.856C274.805 671.517 278.865 668.362 282.644 665.673C308.991 646.85 338.266 627.561 365.462 610.843C430.906 570.626 505.698 531.813 579.263 515.095C611.371 507.847 646.689 504.574 679.742 509.952C685.125 510.886 690.129 511.822 695.513 513.225C699.951 514.394 705.995 517.083 708.544 515.68L709.677 514.862C688.902 507.029 670.865 502.703 647.162 501.65C541.111 497.092 408.714 573.199 317.584 634.926C313.902 637.381 273.483 664.854 270.933 667.543L271.028 673.856L271.028 673.856L271.028 673.856Z" id="Shape#9" fill="#FEFEFE" fill-rule="evenodd" stroke="none" />
      <path d="M780.976 505.159C784.281 506.095 785.319 503.289 789.947 498.495C808.551 479.322 834.331 464.826 857.563 455.356C947.275 418.998 1078.92 412.801 1173.54 412.101C1173.35 409.178 1172.03 404.384 1172.03 404.384C1172.03 404.15 1171.94 404.15 1171.84 404.033C1161.08 403.682 1127.93 405.904 1114.8 406.605C1037.46 410.347 923.856 416.543 854.447 449.628C827.344 462.487 810.156 474.997 788.814 496.157L780.976 505.159L780.976 505.159L780.976 505.159Z" id="Shape#10" fill="#FEFEFE" fill-rule="evenodd" stroke="none" />
      <path d="M269.328 747.158C276.977 743.066 284.91 736.402 292.087 731.141C314.09 715.008 338.171 697.472 360.363 682.391C432.983 633.29 530.913 569.108 610.899 549.233C627.708 545.024 658.494 539.764 675.303 545.375C675.493 543.855 674.359 545.375 675.964 543.855C675.209 542.685 676.72 543.387 674.359 542.452L668.788 541.05C660.572 539.062 652.073 538.594 643.668 538.828C632.524 539.062 621.759 540.816 611.088 543.27C531.479 561.157 429.774 627.794 359.892 675.493C337.227 690.926 313.996 708.111 291.803 724.477C287.932 727.284 284.438 729.855 280.566 732.778C277.26 735.233 272.917 738.975 269.518 740.961L269.233 747.158L269.328 747.158L269.328 747.158Z" id="Shape#11" fill="#FEFEFE" fill-rule="evenodd" stroke="none" />
      <path d="M178.388 555.195L133.342 473.711C123.804 456.175 112.661 437.002 103.312 419.583C98.4011 410.347 93.3959 401.462 88.3909 392.577L28.6137 284.788C27.4805 289.582 28.5193 289.932 30.3135 293.205L232.971 669.648C234.766 673.039 261.018 722.491 262.434 724.01C262.907 722.725 262.812 720.269 262.907 718.749C263.19 709.397 263.568 709.163 260.735 704.02C258.185 699.343 255.824 695.018 253.274 690.575C248.175 681.573 243.454 672.688 238.353 663.686C228.249 645.682 218.522 627.445 208.324 609.558C198.124 591.438 188.586 573.549 178.293 555.429L178.388 555.195L178.388 555.195Z" id="Shape#12" fill="#FEFEFE" fill-rule="evenodd" stroke="none" />
      <path d="M269.706 737.922C271.5 737.455 289.442 723.542 292.465 721.322C327.689 694.783 370.562 664.738 407.014 641.005C466.981 602.192 546.117 555.078 612.788 540.465C631.297 536.373 660.855 533.568 677.665 541.634C678.42 539.764 678.987 540.582 679.648 538.127C665.483 535.204 664.349 533.568 647.917 532.516C617.226 530.528 583.89 539.881 555.844 551.338C520.431 565.834 486.245 585.007 454.987 604.647C422.88 624.873 391.81 645.215 361.214 666.725C356.681 669.999 274.617 727.284 269.989 731.493L269.801 738.039L269.706 737.922L269.706 737.922Z" id="Shape#13" fill="#FEFEFE" fill-rule="evenodd" stroke="none" />
      <path d="M269.895 728.101C273.2 726.582 278.489 722.139 281.7 719.801C316.452 695.367 349.975 670.699 385.483 646.967C393.415 641.59 401.159 636.445 408.997 631.185C424.58 620.663 440.539 610.609 456.498 600.672C512.214 566.418 586.535 524.565 652.262 530.176C661.611 530.994 670.393 532.748 679.365 535.554C680.214 535.788 680.497 536.022 681.253 535.905L682.481 535.321C681.82 534.034 682.575 535.087 681.82 534.502L678.987 533.567C677.664 533.216 676.625 532.865 675.398 532.631C667.561 530.644 659.817 529.359 651.789 528.774C619.588 526.202 588.046 533.684 558.016 544.439C473.024 574.953 370.94 647.318 292.37 702.265L269.801 718.281L269.801 728.335L269.895 728.101L269.895 728.101Z" id="Shape#14" fill="#FEFEFE" fill-rule="evenodd" stroke="none" />
      <path d="M748.585 504.34C750.567 504.457 750.757 504.457 751.891 503.17L758.594 495.689C846.325 400.993 988.544 371.182 1102.34 359.959C1112.72 358.907 1123.21 358.089 1133.6 357.387C1138.32 357.036 1163.53 356.218 1165.61 355.165C1165.7 351.776 1165.23 351.425 1165.23 350.49C1165.23 350.256 1165.14 350.256 1165.14 350.022C1160.04 349.671 1153.52 350.49 1148.42 350.724C1077.12 354.698 992.604 366.155 925.651 388.836C872.106 406.956 828.193 428.349 784.848 465.76C773.893 475.229 757.367 492.299 748.679 504.106L748.585 504.34L748.585 504.34Z" id="Shape#15" fill="#FEFEFE" fill-rule="evenodd" stroke="none" />
      <path d="M117.288 413.62C136.93 448.224 156.194 483.648 175.649 518.603C185.47 536.139 194.818 553.558 204.735 570.977C205.774 572.731 261.396 673.973 263.473 676.078C263.001 671.519 264.134 669.063 262.245 665.673L236.937 619.962C217.483 585.358 198.502 549.701 178.954 514.979L121.16 410.346C116.155 401.461 36.5461 256.145 34.3742 253.69C32.1077 262.692 31.9188 260.002 36.9238 268.77C39.4736 273.214 41.7401 277.54 44.1953 281.982C68.7484 325.237 92.8293 370.481 117.288 413.62L117.288 413.62L117.288 413.62Z" id="Shape#16" fill="#FEFEFE" fill-rule="evenodd" stroke="none" />
      <path d="M261.963 741.546C262.057 738.038 262.529 734.064 262.529 730.556C262.529 727.282 253.652 712.319 251.858 709.162L117.383 459.447C107.278 440.742 97.5514 422.505 87.4469 403.799C86.5025 401.929 28.9918 294.373 27.5753 292.971C26.8197 295.308 32.5803 304.544 33.9024 306.766C36.5465 311.326 38.7185 316.001 41.2683 320.795L85.3694 404.852C96.9849 427.999 110.3 452.316 121.632 475.463L136.175 503.872C138.63 508.432 140.992 513.108 143.446 518.018C152.985 537.308 162.901 555.195 172.533 574.368C196.047 621.482 221.922 667.894 246.758 714.073C249.308 718.865 251.669 723.425 254.219 727.984C255.636 730.439 260.547 740.377 261.868 741.663L261.963 741.546L261.963 741.546Z" id="Shape#17" fill="#FEFEFE" fill-rule="evenodd" stroke="none" />
      <path d="M237.409 646.033C232.31 637.265 227.399 628.38 222.489 619.495C198.219 575.537 173.099 531.229 148.452 487.506C128.526 452.199 109.072 417.01 89.1467 381.705C79.2311 364.052 69.3154 346.399 59.3997 328.629L29.7472 276.02C28.4251 282.566 28.9918 281.281 34.3745 290.985L115.494 437.353C125.031 454.889 135.798 473.243 144.958 490.662C154.496 508.783 164.884 525.852 174.421 543.973C183.393 560.924 194.63 580.214 203.979 597.282C213.14 614.117 224.756 634.108 233.444 650.592C238.26 659.711 243.17 668.245 248.175 677.248C250.347 681.105 261.585 702.149 263.19 703.552C262.529 700.161 263.568 696.07 263.002 692.562C262.718 690.692 260.452 687.301 259.413 685.548L237.221 645.916L237.409 646.033L237.409 646.033Z" id="Shape#18" fill="#FEFEFE" fill-rule="evenodd" stroke="none" />
      <path d="M457.442 627.911C464.431 623.586 471.607 619.962 478.879 615.988C537.807 583.253 607.594 557.884 671.904 547.362C668.976 545.375 658.778 545.609 654.716 545.609C608.821 545.492 552.35 570.862 510.892 592.372C464.241 616.689 433.644 636.913 389.826 665.089C376.512 673.623 363.857 682.859 351.014 691.627C344.404 696.069 338.359 700.512 331.938 705.071L313.334 718.516L457.442 628.028L457.442 627.911L457.442 627.911Z" id="Shape#19" fill="#FEFEFE" fill-rule="evenodd" stroke="none" />
      <path d="M270.933 684.495C278.489 679.234 286.138 673.739 293.881 668.245C301.53 662.985 309.369 657.606 317.206 652.229C360.363 622.417 419.857 586.644 463.863 564.781C529.968 532.047 622.798 496.507 696.74 519.071C702.406 520.825 700.423 518.837 703.54 518.369C701.084 515.797 678.137 512.057 673.038 511.355C639.702 507.029 606.177 511.121 573.786 518.72C534.313 528.073 498.522 543.153 463.202 559.521C411.83 583.253 364.896 613.532 316.828 644.863L270.745 676.662L270.839 684.378L270.933 684.495L270.933 684.495Z" id="Shape#20" fill="#FEFEFE" fill-rule="evenodd" stroke="none" />
      <path d="M190.853 532.398C195.574 541.282 200.485 549.7 205.301 558.469C219.561 584.656 234.764 611.077 248.741 637.03C250.724 640.655 261.774 661.231 263.284 662.983C263.662 657.957 262.906 657.372 261.206 654.215L208.039 556.13C188.964 521.175 170.266 486.453 151.378 451.498C141.841 433.962 132.586 416.777 123.048 399.239C113.416 381.586 39.3791 243.753 37.9625 242.583C37.1126 244.103 35.3184 249.13 35.5072 250.767C35.6961 252.053 59.5881 294.842 60.6268 296.711C70.4481 314.015 79.986 331.551 89.6183 349.204C108.789 384.276 128.148 418.88 147.413 453.836C157.14 471.489 166.583 488.791 176.404 506.327C181.22 514.979 186.225 523.747 190.853 532.398L190.853 532.398L190.853 532.398Z" id="Shape#21" fill="#FEFEFE" fill-rule="evenodd" stroke="none" />
      <path d="M207.19 579.745C187.359 544.79 168.566 509.835 148.83 474.762C129.186 439.924 110.205 404.618 90.563 369.78L39.3793 277.655C38.1516 275.318 37.0185 273.564 35.7908 271.226C35.2243 270.174 34.6576 269.121 33.9966 267.952C33.6188 267.25 33.5244 266.9 33.0522 266.199L32.0134 264.913C31.0691 267.134 30.2192 271.81 31.0691 273.681C32.1078 275.903 33.7132 278.24 34.8464 280.345C51.6559 310.858 69.3152 341.488 86.3135 372.117C96.0403 389.653 105.861 407.19 115.872 424.843C135.609 459.681 155.062 495.338 174.799 530.06C184.809 547.596 194.535 565.015 204.169 582.551C206.434 586.644 262.057 686.482 263.378 687.535C262.718 682.273 264.324 682.39 261.774 678.065C253.557 663.919 244.586 646.85 236.276 632.121C226.361 614.702 217.012 597.047 207.19 579.745L207.19 579.745L207.19 579.745Z" id="Shape#22" fill="#FEFEFE" fill-rule="evenodd" stroke="none" />
      <path d="M270.556 694.667C271.878 693.03 279.716 688.002 282.076 686.249C321.078 658.308 371.884 624.405 411.925 601.257C489.927 556.13 602.117 497.676 691.452 524.098C693.813 524.8 695.701 523.982 697.212 521.76C679.458 515.097 650.183 513.693 630.542 514.98C555.937 520.006 474.535 558.937 408.336 597.282C392.094 606.752 375.473 616.572 359.891 626.743C331.088 645.449 306.063 662.4 278.111 682.041C269.706 688.002 270.084 686.015 270.367 694.667L270.556 694.667L270.556 694.667Z" id="Shape#23" fill="#FEFEFE" fill-rule="evenodd" stroke="none" />
      <path d="M790.23 508.198C792.403 508.198 793.724 509.25 795.802 507.847L809.118 498.261C815.35 493.935 821.489 490.078 827.91 486.453C834.426 482.713 840.659 479.088 847.553 475.697C886.083 456.875 916.019 447.756 959.742 440.391C992.604 434.897 1033.02 432.208 1066.26 432.325C1103.47 432.559 1141.34 433.611 1178.45 432.676C1178.64 430.22 1176.75 423.674 1176.19 421.686C1138.98 423.089 1102.34 423.557 1065.32 426.246C1030 428.817 995.815 432.676 961.347 438.287C910.918 446.353 851.141 462.254 807.135 493.818C804.868 495.455 791.647 505.158 790.23 508.315L790.23 508.198L790.23 508.198Z" id="Shape#24" fill="#FEFEFE" fill-rule="evenodd" stroke="none" />
      <path d="M776.916 504.341C778.615 504.69 778.709 504.224 779.654 503.055L785.604 496.507C788.436 493.468 790.891 491.013 793.724 488.324C836.976 446.822 892.22 429.285 947.465 419.815C1020.27 407.424 1096.67 404.852 1171.46 401.578C1171.65 398.656 1170.8 395.733 1170.24 393.044C1163.06 392.576 1122.45 395.265 1112.16 395.85C1060.03 399.007 996.476 404.384 946.614 415.374C912.43 422.972 881.172 432.091 851.33 446.939C836.881 454.187 823.472 462.604 811.1 472.191C800.807 480.14 785.226 493.936 777.009 504.224L776.916 504.341L776.916 504.341Z" id="Shape#25" fill="#FEFEFE" fill-rule="evenodd" stroke="none" />
      <path d="M785.887 506.561C788.72 507.263 790.42 504.34 795.047 500.365C839.714 462.253 905.819 445.185 958.891 436.183C1028.87 424.258 1103.09 420.166 1175.34 419.231L1174.58 414.438C1165.99 415.49 1154.56 414.906 1145.68 415.14C1136.33 415.373 1126.99 415.607 1117.73 415.958C1063.15 418.18 1010.26 421.803 956.342 431.039C923.478 436.651 891.182 444.717 861.34 456.524C846.986 462.137 832.633 469.268 820.261 477.217C813.084 481.777 788.72 499.898 785.982 506.561L785.887 506.561L785.887 506.561Z" id="Shape#26" fill="#FEFEFE" fill-rule="evenodd" stroke="none" />
      <path d="M270.272 704.604C272.444 703.669 312.485 675.026 316.64 672.22L363.102 640.889C394.171 620.08 426.185 601.024 459.425 582.436C517.786 549.818 594.183 516.032 661.232 523.28C668.598 524.098 677.569 525.735 684.747 527.722C691.451 529.593 688.335 527.722 691.073 527.137C690.412 525.969 691.829 526.788 689.374 525.852L683.802 524.449C681.346 523.865 678.892 523.397 676.342 522.929C670.865 521.877 665.671 521.175 660.1 520.708C648.578 519.772 636.868 519.772 625.441 520.825C539.412 528.306 436.478 586.527 362.063 634.927C346.386 645.098 331.088 655.503 315.884 665.674C303.136 674.208 282.549 688.353 270.745 697.472L270.555 704.721L270.272 704.604L270.272 704.604Z" id="Shape#27" fill="#FEFEFE" fill-rule="evenodd" stroke="none" />
      <path d="M754.439 504.107C759.635 502.353 758.972 501.535 764.451 495.572C767.189 492.533 770.4 489.376 773.422 486.453C819.883 442.145 873.617 416.66 932.166 399.241C1002.05 378.431 1093.74 366.74 1166.36 364.752C1166.36 362.064 1166.08 360.778 1165.99 358.206C1133.5 358.556 1075.8 364.752 1042.94 370.013C954.736 383.925 865.684 409.412 791.364 468.332C785.131 473.36 756.518 498.846 754.346 504.224L754.439 504.107L754.439 504.107Z" id="Shape#28" fill="#FEFEFE" fill-rule="evenodd" stroke="none" />
      <path d="M270.084 715.126C272.917 713.957 278.772 709.046 281.793 706.943C308.991 687.887 334.582 669.766 362.441 650.71C375.189 642.058 397.004 627.211 409.564 619.729C425.712 610.026 441.2 599.738 457.631 590.385C508.626 561.509 563.776 532.399 622.325 526.32C641.59 524.332 661.422 525.852 680.214 531.113C684.464 532.282 684.558 533.217 686.257 530.528C599.001 502.821 481.239 571.095 407.958 614.935C391.999 624.522 376.795 634.927 361.119 644.864C352.714 650.125 270.933 705.423 270.178 708.111L270.084 715.126L270.084 715.126L270.084 715.126Z" id="Shape#29" fill="#FEFEFE" fill-rule="evenodd" stroke="none" />
      <path d="M760.389 503.406C765.017 503.873 763.883 503.172 766.433 500.482C767.85 499.079 769.361 497.443 770.778 495.924C814.972 447.875 879.189 420.05 936.604 404.033C972.395 394.096 1009.7 387.666 1047.38 382.757C1066.92 380.185 1086.85 378.197 1106.49 376.677C1113.58 376.092 1165.61 373.521 1167.31 372.586C1167.31 367.792 1167.12 367.558 1165.89 367.207C1165.42 367.09 1165.23 367.09 1164.76 367.09L1136.05 368.727C1070.89 372.82 998.082 382.289 935.85 400.644C876.734 418.063 825.455 441.911 778.049 485.168C774.743 488.207 771.91 491.013 768.889 494.053C766.433 496.507 762.09 500.716 760.484 503.289L760.389 503.406L760.389 503.406Z" id="Shape#30" fill="#FEFEFE" fill-rule="evenodd" stroke="none" />
      <path d="M767.094 503.522C770.211 503.756 771.061 501.886 772.666 500.249C783.904 488.324 790.42 481.777 803.83 471.255C844.437 439.339 891.749 420.868 940.761 408.827C1006.2 392.81 1071.84 387.316 1138.51 383.223C1142.66 382.99 1166.65 382.171 1168.35 381.588C1168.35 379.366 1168.35 377.495 1167.5 375.625C1158.62 375.04 1146.34 376.56 1137.18 377.145C1074.48 380.769 999.31 389.303 939.815 405.787C884.854 420.985 828.288 444.367 784.092 485.985C782.298 487.739 768.323 500.833 767.001 503.639L767.094 503.522L767.094 503.522Z" id="Shape#31" fill="#FEFEFE" fill-rule="evenodd" stroke="none" />
      <path d="M772.288 503.873C775.121 504.224 775.687 502.236 777.387 500.249L789.852 487.505C832.631 445.77 889.292 425.194 943.781 413.62C1007.43 400.059 1104.32 392.108 1169.76 390.589C1169.39 388.017 1169.29 386.965 1168.82 384.276C1165.89 383.691 1157.68 384.626 1154.28 384.743C1084.68 388.368 1011.4 394.096 943.687 410.463C909.407 418.764 877.677 429.869 848.119 445.068C833.67 452.55 819.694 461.552 807.323 471.138C801.468 475.698 776.443 496.975 772.288 503.756L772.288 503.873L772.288 503.873Z" id="Shape#32" fill="#FEFEFE" fill-rule="evenodd" stroke="none" />
      <path d="M197.652 513.109C181.126 481.31 165.072 447.173 148.83 415.607C145.524 409.295 142.314 402.513 139.008 396.201C135.703 389.771 132.775 383.342 129.471 376.911L109.639 338.331C105.578 330.615 51.5615 228.555 48.3508 224.93C46.7454 225.515 45.6121 226.684 44.5733 228.555C47.4064 234.868 60.6272 258.951 64.8768 266.784L176.782 475.698C180.276 482.245 183.676 488.207 186.981 494.638C191.892 503.99 204.074 525.617 207.378 532.75C206.812 530.528 203.696 524.916 202.562 522.812C200.958 519.655 199.353 516.265 197.652 513.109L197.652 513.109L197.652 513.109Z" id="Shape#33" fill="#FEFEFE" fill-rule="evenodd" stroke="none" />
    </g>
  </g>
</svg>